<?xml version="1.0" encoding="UTF-8" standalone="no"?>
<!-- Generator: Adobe Illustrator 21.0.0, SVG Export Plug-In . SVG Version: 6.00 Build 0)  -->

<svg
   xmlns:dc="http://purl.org/dc/elements/1.1/"
   xmlns:cc="http://creativecommons.org/ns#"
   xmlns:rdf="http://www.w3.org/1999/02/22-rdf-syntax-ns#"
   xmlns:svg="http://www.w3.org/2000/svg"
   xmlns="http://www.w3.org/2000/svg"
   xmlns:sodipodi="http://sodipodi.sourceforge.net/DTD/sodipodi-0.dtd"
   xmlns:inkscape="http://www.inkscape.org/namespaces/inkscape"
   version="1.1"
   id="Capa_1"
   x="0px"
   y="0px"
   viewBox="0 0 531 512"
   xml:space="preserve"
   width="531"
   height="512"
   sodipodi:docname="activity.svg"
   inkscape:version="0.92.3 (2405546, 2018-03-11)"><metadata
   id="metadata847"><rdf:RDF><cc:Work
       rdf:about=""><dc:format>image/svg+xml</dc:format><dc:type
         rdf:resource="http://purl.org/dc/dcmitype/StillImage" /><dc:title></dc:title></cc:Work></rdf:RDF></metadata><defs
   id="defs845" /><sodipodi:namedview
   pagecolor="#ffffff"
   bordercolor="#666666"
   borderopacity="1"
   objecttolerance="10"
   gridtolerance="10"
   guidetolerance="10"
   inkscape:pageopacity="0"
   inkscape:pageshadow="2"
   inkscape:window-width="1366"
   inkscape:window-height="705"
   id="namedview843"
   showgrid="false"
   showguides="false"
   inkscape:zoom="0.65738834"
   inkscape:cx="256"
   inkscape:cy="256"
   inkscape:window-x="-8"
   inkscape:window-y="-8"
   inkscape:window-maximized="1"
   inkscape:current-layer="Capa_1"><inkscape:grid
     type="xygrid"
     id="grid1530" /></sodipodi:namedview>
<g
   id="g840"
   style="fill:#20be19;fill-opacity:1"
   transform="matrix(0.46224232,0,0,0.4681844,152.11708,263.16258)">
	<g
   id="g834"
   style="fill:#20be19;fill-opacity:1">
		<path
   d="m 422,287 c 0,-24.901 -20.099,-45 -45,-45 H 287 V 182.599 C 287,140.9 253.1,107 211.399,107 c -8.099,0 -15,6.599 -15,15 l 0.3,3.9 c 0.3,8.399 1.5,31.199 -6.599,58.799 -6.601,23.401 -18.001,44.101 -33.6,61.8 C 139.999,262.7 117.499,272 94.701,272 H 92 v 210 h 8.101 c 22.5,0 44.099,4.499 64.499,13.799 C 188.6,506.6 214.401,512 241.1,512 H 332 c 24.901,0 45,-20.101 45,-45 0,-6 -1.5,-11.4 -3.3,-16.8 18.9,-5.101 33.3,-22.5 33.3,-43.2 0,-8.101 -2.1,-15.601 -5.7,-22.2 12.299,-7.8 20.7,-21.901 20.7,-37.8 0,-11.4 -4.501,-21.901 -11.4,-30 6.899,-8.101 11.4,-18.6 11.4,-30 z M 15,272 c -8.401,0 -15,6.599 -15,15 v 180 c 0,8.399 6.599,15 15,15 H 62 V 272 Z"
   id="path832"
   style="fill:#20be19;fill-opacity:1"
   inkscape:connector-curvature="0" />
	</g>
	<g
   id="g838"
   style="fill:#20be19;fill-opacity:1">
		<path
   d="m 407,0 c -57.9,0 -105,48.1 -105,106 0,57.9 47.1,106 105,106 57.9,0 105,-48.1 105,-106 C 512,48.1 464.9,0 407,0 Z m 15,136 c 0,8.399 -6.599,15 -15,15 -8.401,0 -15,-6.601 -15,-15 v -32.1 c -6.899,3.9 -15.601,2.1 -20.099,-4.501 C 367.4,92.5 369.2,83.2 376.1,78.399 l 22.5,-15 c 4.801,-2.999 10.501,-3.3 15.601,-0.599 4.801,2.699 7.8,7.8 7.8,13.2 v 60 z"
   id="path836"
   style="fill:#20be19;fill-opacity:1"
   inkscape:connector-curvature="0" />
	</g>
</g>















<g
   id="g912"
   transform="matrix(0.29817073,0,0,0.28931134,113.6729,-22.714713)"><path
     style="fill:#ff0000;fill-opacity:1;stroke-width:0.73232323"
     d="m 391.03493,259.93089 c -10.19955,9.99747 -49.4755,-12.28856 -87.72623,-49.78142 -38.25074,-37.49285 -60.98726,-75.99059 -50.78771,-85.98806 10.19956,-9.99747 49.4755,12.28857 87.72624,49.78142 38.25073,37.49285 60.98726,75.99132 50.7877,85.98806"
     id="path900"
     inkscape:connector-curvature="0" /><polygon
     style="fill:#d9dbe8"
     points="0,508.9 112.358,346.605 162.295,396.543 "
     id="polygon902" /><path
     style="fill:#ff0000;fill-opacity:1;stroke-width:0.73232323"
     d="m 303.30944,210.14875 c -38.25074,-37.49285 -60.98726,-75.9906 -50.78771,-85.98807 -36.97773,36.24508 -29.01795,89.22606 9.23278,126.71891 38.25074,37.49286 89.99856,47.55412 126.9689,11.31558 l -0.5814,-0.59525 c -13.36542,4.76853 -49.5073,-16.82582 -84.83257,-51.45117"
     id="path904"
     inkscape:connector-curvature="0" /><path
     id="SVGCleanerId_0"
     style="fill:#a31c09;stroke-width:0.73232323"
     d="m 270.07748,324.18395 43.35015,-42.49122 c -18.19189,-4.87729 -36.05683,-15.50771 -51.66942,-30.81096 -15.61924,-15.30978 -26.07917,-33.19849 -30.59792,-51.47074 l -44.17934,43.29818 -36.03685,35.32283 c 4.52541,18.27951 16.70289,34.47817 32.32214,49.78142 15.61259,15.30977 32.59582,26.80443 50.78771,31.68172 z"
     inkscape:connector-curvature="0" /><g
     id="g908"
     style="fill:#ff0000;fill-opacity:1"
     transform="matrix(0.73968781,0,0,0.72503195,17.045075,121.7717)"><path
       id="SVGCleanerId_0_1_"
       style="fill:#ff0000;fill-opacity:1"
       d="m 342.08,279.177 58.606,-58.606 c -24.594,-6.727 -48.746,-21.389 -69.853,-42.496 -21.116,-21.116 -35.257,-45.789 -41.366,-70.991 l -59.727,59.719 -48.719,48.719 c 6.118,25.212 22.581,47.554 43.697,68.661 21.107,21.116 44.067,36.97 68.661,43.697 z"
       inkscape:connector-curvature="0" /></g><path
     style="fill:#ff0003;fill-opacity:1;stroke-width:0.73232323"
     d="m 247.32764,404.51821 c 1.73679,-15.57803 -1.18867,-32.06526 -8.74976,-49.46167 l -4.52541,4.44154 c -18.19189,-4.88309 -35.17512,-16.37847 -50.78771,-31.68172 -15.61925,-15.30325 -27.79673,-31.50844 -32.32214,-49.78142 l 4.61639,-4.52492 -0.20267,-0.20446 c -17.85828,-7.50118 -34.77716,-10.40059 -50.76182,-8.68516 -29.703639,3.17419 -47.392533,33.26229 -35.234285,60.02177 9.252755,20.3531 26.307737,44.03409 49.057575,66.33245 22.74244,22.29256 46.90878,39.01614 67.6733,48.07904 27.29522,11.91735 57.99152,-5.42106 61.23653,-34.53545"
     id="path910"
     inkscape:connector-curvature="0" /></g><g
   transform="matrix(0.50352698,0,0,-0.49238559,28.458957,153.55338)"
   id="g5302"><g
     id="g5300"><g
       id="g5298"><path
         inkscape:connector-curvature="0"
         style="fill:#da2f47"
         d="m 409.6,-168.8 c 0,-113.106 -91.694,-204.8 -204.8,-204.8 C 91.705,-373.6 0,-281.906 0,-168.8 0,-55.705 91.705,36 204.8,36 317.906,36 409.6,-55.705 409.6,-168.8"
         id="path5288" /><g
         id="g5296"><path
           inkscape:connector-curvature="0"
           style="fill:#292f33"
           d="m 289.963,-303.957 c -0.512,2.037 -13.289,49.823 -85.163,49.823 -71.885,0 -84.662,-47.787 -85.163,-49.823 -0.626,-2.469 0.489,-5.029 2.697,-6.303 2.219,-1.24 4.995,-0.899 6.815,0.876 0.216,0.216 22.232,21.117 75.651,21.117 53.407,0 75.435,-20.901 75.639,-21.117 1.092,-1.07 2.549,-1.638 4.005,-1.638 0.956,0 1.923,0.239 2.799,0.728 2.23,1.274 3.345,3.857 2.72,6.337"
           id="path5290" /><path
           inkscape:connector-curvature="0"
           style="fill:#292f33"
           d="m 178.711,-160.756 c -37.035,37.035 -96.552,37.467 -99.066,37.467 -6.281,0 -11.366,-5.086 -11.366,-11.366 -0.011,-6.269 5.074,-11.378 11.355,-11.389 0.33,0 21.902,-0.25 45.318,-8.385 -6.747,-7.282 -11.173,-18.591 -11.173,-31.437 0,-22.005 12.732,-39.822 28.444,-39.822 15.712,0 28.444,17.818 28.444,39.822 0,1.98 -0.216,3.868 -0.421,5.769 0.148,0 0.284,-0.08 0.421,-0.08 2.913,0 5.825,1.115 8.044,3.334 4.448,4.448 4.448,11.638 0,16.087"
           id="path5292" /><path
           inkscape:connector-curvature="0"
           style="fill:#292f33"
           d="m 329.956,-123.289 c -2.514,0 -62.02,-0.432 -99.066,-37.467 -4.449,-4.449 -4.449,-11.639 0,-16.088 2.219,-2.219 5.131,-3.334 8.044,-3.334 0.148,0 0.273,0.08 0.41,0.08 -0.182,-1.9 -0.41,-3.789 -0.41,-5.769 0,-22.005 12.732,-39.822 28.444,-39.822 15.712,0 28.444,17.818 28.444,39.822 0,12.846 -4.426,24.155 -11.173,31.437 23.415,8.135 44.988,8.385 45.329,8.385 6.269,0.011 11.355,5.12 11.344,11.389 -0.011,6.281 -5.086,11.367 -11.366,11.367"
           id="path5294" /></g></g></g></g><path
   inkscape:connector-curvature="0"
   style="fill:#ff0030;fill-opacity:1;stroke-width:2.32904649"
   d="m 438.50362,177.5119 c 4.78082,-10.95156 15.70226,-18.60371 28.40529,-18.60371 17.11188,0 29.43583,14.14798 30.98522,31.00925 0,0 0.83628,4.18556 -1.00449,11.72092 -2.5065,10.26238 -8.39841,19.37991 -16.34193,26.33829 l -42.04409,36.25491 -41.33571,-36.25721 c -7.94354,-6.95608 -13.83544,-16.0759 -16.34193,-26.33829 -1.84078,-7.53537 -1.0045,-11.72092 -1.0045,-11.72092 1.54938,-16.86126 13.87334,-31.00924 30.98521,-31.00924 12.7054,0 22.91614,7.65444 27.69693,18.606 z"
   id="path5979" /><g
   transform="matrix(0.28407652,0,0,0.29584415,227.93876,93.795747)"
   id="g6668"
   style="fill:#ffda00;fill-opacity:0.97790055"><g
     id="g6666"
     style="fill:#ffda00;fill-opacity:0.97790055"><path
       inkscape:connector-curvature="0"
       d="M 100.5,45.683 H 18.276 c -4.949,0 -9.231,1.809 -12.851,5.426 C 1.809,54.724 0,59.007 0,63.954 v 182.729 c 0,4.948 1.809,9.233 5.426,12.847 3.616,3.614 7.898,5.425 12.851,5.425 H 100.5 c 4.948,0 9.229,-1.811 12.847,-5.425 3.616,-3.613 5.424,-7.898 5.424,-12.847 V 63.954 c 0,-4.947 -1.809,-9.229 -5.424,-12.845 -3.617,-3.618 -7.898,-5.426 -12.847,-5.426 z m -32.835,67.668 c -3.616,3.617 -7.898,5.424 -12.847,5.424 -5.14,0 -9.471,-1.807 -12.99,-5.424 -3.521,-3.617 -5.281,-7.898 -5.281,-12.85 0,-5.137 1.759,-9.469 5.281,-12.991 3.52,-3.521 7.85,-5.28 12.99,-5.28 4.949,0 9.231,1.759 12.847,5.28 3.621,3.521 5.426,7.854 5.426,12.991 0,4.948 -1.809,9.229 -5.426,12.85 z"
       id="path6662"
       style="fill:#ffda00;fill-opacity:0.97790055" /><path
       inkscape:connector-curvature="0"
       d="m 441.106,204.141 c 2.861,-8.376 4.281,-15.608 4.261,-21.693 0.575,-14.466 -3.519,-27.504 -12.279,-39.114 3.237,-10.66 3.237,-21.797 0,-33.407 -2.847,-10.85 -7.994,-19.792 -15.413,-26.835 1.711,-21.32 -2.95,-38.543 -13.99,-51.678 C 391.502,16.949 372.756,9.522 347.439,9.144 h -10.28 -21.696 -4.853 c -12.56,0 -26.269,1.475 -41.114,4.425 -14.838,2.952 -26.405,5.713 -34.68,8.282 -8.28,2.568 -19.75,6.328 -34.403,11.276 -23.413,8.183 -38.45,12.371 -45.111,12.56 -4.949,0.193 -9.231,2.046 -12.847,5.569 -3.617,3.518 -5.426,7.755 -5.426,12.703 V 246.97 c 0,4.757 1.718,8.898 5.142,12.416 3.424,3.524 7.517,5.476 12.275,5.858 4.565,0.384 11.799,5.996 21.698,16.844 9.9,10.849 19.511,22.368 28.836,34.551 12.944,16.553 22.558,27.973 28.837,34.256 3.424,3.422 6.37,7.99 8.848,13.702 2.472,5.708 4.142,10.324 5.004,13.846 0.855,3.519 2.135,9.274 3.856,17.275 1.328,7.419 2.519,13.227 3.569,17.412 1.047,4.188 2.898,9.137 5.564,14.845 2.67,5.716 5.903,10.469 9.712,14.274 3.614,3.62 7.898,5.431 12.847,5.431 8.761,0 16.604,-0.999 23.559,-2.998 6.947,-1.998 12.655,-4.469 17.131,-7.419 4.477,-2.957 8.282,-6.803 11.424,-11.566 3.142,-4.757 5.424,-9.042 6.851,-12.848 1.431,-3.812 2.574,-8.562 3.426,-14.27 0.855,-5.716 1.338,-10 1.431,-12.854 0.093,-2.854 0.144,-6.563 0.144,-11.136 0,-7.228 -0.948,-14.51 -2.851,-21.84 -1.909,-7.323 -3.72,-12.895 -5.428,-16.707 -1.711,-3.806 -4.281,-9.227 -7.706,-16.269 -0.575,-1.144 -1.523,-2.861 -2.854,-5.144 -1.328,-2.283 -2.382,-4.381 -3.142,-6.283 -0.763,-1.902 -1.522,-4.186 -2.279,-6.852 h 79.086 c 14.843,0 27.645,-5.428 38.397,-16.279 10.756,-10.848 16.228,-23.694 16.419,-38.54 -0.014,-16.744 -5.25,-30.925 -15.719,-42.534 z"
       id="path6664"
       style="fill:#ffda00;fill-opacity:0.97790055" /></g></g></svg>