<?xml version="1.0" encoding="UTF-8" standalone="no"?>
<!-- Generator: Adobe Illustrator 21.0.0, SVG Export Plug-In . SVG Version: 6.00 Build 0)  -->

<svg
   xmlns:dc="http://purl.org/dc/elements/1.1/"
   xmlns:cc="http://creativecommons.org/ns#"
   xmlns:rdf="http://www.w3.org/1999/02/22-rdf-syntax-ns#"
   xmlns:svg="http://www.w3.org/2000/svg"
   xmlns="http://www.w3.org/2000/svg"
   xmlns:sodipodi="http://sodipodi.sourceforge.net/DTD/sodipodi-0.dtd"
   xmlns:inkscape="http://www.inkscape.org/namespaces/inkscape"
   version="1.1"
   id="Capa_1"
   x="0px"
   y="0px"
   viewBox="0 0 512 512"
   style="enable-background:new 0 0 512 512;"
   xml:space="preserve"
   width="512"
   height="512"
   sodipodi:docname="like-1.svg"
   inkscape:version="0.92.3 (2405546, 2018-03-11)"><metadata
   id="metadata7306"><rdf:RDF><cc:Work
       rdf:about=""><dc:format>image/svg+xml</dc:format><dc:type
         rdf:resource="http://purl.org/dc/dcmitype/StillImage" /></cc:Work></rdf:RDF></metadata><defs
   id="defs7304" /><sodipodi:namedview
   pagecolor="#ffffff"
   bordercolor="#666666"
   borderopacity="1"
   objecttolerance="10"
   gridtolerance="10"
   guidetolerance="10"
   inkscape:pageopacity="0"
   inkscape:pageshadow="2"
   inkscape:window-width="656"
   inkscape:window-height="465"
   id="namedview7302"
   showgrid="false"
   inkscape:zoom="0.4609375"
   inkscape:cx="256"
   inkscape:cy="256"
   inkscape:window-x="170"
   inkscape:window-y="39"
   inkscape:window-maximized="0"
   inkscape:current-layer="Capa_1" />
<g
   id="g7299"
   style="fill:#20be19;fill-opacity:1">
	<g
   id="g7293"
   style="fill:#20be19;fill-opacity:1">
		<path
   d="M422,287c0-24.901-20.099-45-45-45h-90v-59.401C287,140.9,253.1,107,211.399,107c-8.099,0-15,6.599-15,15l0.3,3.9    c0.3,8.399,1.5,31.199-6.599,58.799c-6.601,23.401-18.001,44.101-33.6,61.8C139.999,262.7,117.499,272,94.701,272H92v210h8.101    c22.5,0,44.099,4.499,64.499,13.799c24,10.801,49.801,16.201,76.5,16.201H332c24.901,0,45-20.101,45-45c0-6-1.5-11.4-3.3-16.8    c18.9-5.101,33.3-22.5,33.3-43.2c0-8.101-2.1-15.601-5.7-22.2C413.599,377,422,362.899,422,347c0-11.4-4.501-21.901-11.4-30    C417.499,308.899,422,298.4,422,287z M15,272c-8.401,0-15,6.599-15,15v180c0,8.399,6.599,15,15,15h47V272H15z"
   id="path7291"
   style="fill:#20be19;fill-opacity:1" />
	</g>
	<g
   id="g7297"
   style="fill:#20be19;fill-opacity:1">
		<path
   d="M407,0c-57.9,0-105,48.1-105,106s47.1,106,105,106s105-48.1,105-106S464.9,0,407,0z M422,136c0,8.399-6.599,15-15,15    s-15-6.601-15-15v-32.1c-6.899,3.9-15.601,2.1-20.099-4.501c-4.501-6.899-2.701-16.199,4.199-21l22.5-15    c4.801-2.999,10.501-3.3,15.601-0.599c4.801,2.699,7.8,7.8,7.8,13.2V136z"
   id="path7295"
   style="fill:#20be19;fill-opacity:1" />
	</g>
</g>















</svg>