<?xml version="1.0" encoding="UTF-8" standalone="no"?>
<!-- Created with Inkscape (http://www.inkscape.org/) -->

<svg
   xmlns:dc="http://purl.org/dc/elements/1.1/"
   xmlns:cc="http://creativecommons.org/ns#"
   xmlns:rdf="http://www.w3.org/1999/02/22-rdf-syntax-ns#"
   xmlns:svg="http://www.w3.org/2000/svg"
   xmlns="http://www.w3.org/2000/svg"
   xmlns:sodipodi="http://sodipodi.sourceforge.net/DTD/sodipodi-0.dtd"
   xmlns:inkscape="http://www.inkscape.org/namespaces/inkscape"
   width="130mm"
   height="130mm"
   viewBox="0 0 130 130"
   version="1.1"
   id="svg8"
   inkscape:version="0.92.4 (5da689c313, 2019-01-14)"
   sodipodi:docname="logo_wb_t.svg">
  <defs
     id="defs2" />
  <sodipodi:namedview
     id="base"
     pagecolor="#ffffff"
     bordercolor="#666666"
     borderopacity="1.0"
     inkscape:pageopacity="1"
     inkscape:pageshadow="2"
     inkscape:zoom="0.50000001"
     inkscape:cx="740.70691"
     inkscape:cy="322.74084"
     inkscape:document-units="mm"
     inkscape:current-layer="g1390"
     showgrid="false"
     showborder="true"
     inkscape:object-paths="false"
     inkscape:snap-object-midpoints="true"
     inkscape:snap-smooth-nodes="false"
     inkscape:snap-midpoints="false"
     inkscape:object-nodes="false"
     inkscape:snap-nodes="false"
     inkscape:snap-others="false"
     inkscape:window-width="1366"
     inkscape:window-height="745"
     inkscape:window-x="-8"
     inkscape:window-y="-8"
     inkscape:window-maximized="1"
     inkscape:pagecheckerboard="true" />
  <metadata
     id="metadata5">
    <rdf:RDF>
      <cc:Work
         rdf:about="">
        <dc:format>image/svg+xml</dc:format>
        <dc:type
           rdf:resource="http://purl.org/dc/dcmitype/StillImage" />
        <dc:title></dc:title>
      </cc:Work>
    </rdf:RDF>
  </metadata>
  <g
     inkscape:label="Layer 1"
     inkscape:groupmode="layer"
     id="layer1"
     transform="translate(0,-167)">
    <rect
       style="opacity:1;vector-effect:none;fill:#ffff00;fill-opacity:0;fill-rule:evenodd;stroke-width:0.26458332;stroke-linecap:butt;stroke-linejoin:miter;stroke-miterlimit:4;stroke-dasharray:none;stroke-dashoffset:0;stroke-opacity:1"
       id="rect24"
       width="96.911911"
       height="66.790665"
       x="116.36916"
       y="65.010056" />
    <g
       id="g1384">
      <g
         id="g1390">
        <rect
           style="opacity:1;vector-effect:none;fill:#ffffff;fill-opacity:0;fill-rule:evenodd;stroke-width:0.26530612;stroke-linecap:butt;stroke-linejoin:miter;stroke-miterlimit:4;stroke-dasharray:none;stroke-dashoffset:0;stroke-opacity:1"
           id="rect1378"
           width="130"
           height="130"
           x="0.52916664"
           y="167" />
        <g
           id="g28"
           transform="matrix(4.090063,0,0,3.7244732,-610.03067,-127.16221)"
           style="fill:#ffffff">
          <path
             d="m 170.33367,103.35016 q 0,2.25723 -0.84336,4.01836 -0.81855,1.76114 -2.30684,3.00137 -1.46347,1.21543 -3.47265,1.83555 -1.98438,0.62011 -4.29121,0.62011 -1.61231,0 -3.00137,-0.27285 -1.36426,-0.27285 -2.45566,-0.66972 -1.06661,-0.39688 -1.81075,-0.81856 -0.71933,-0.42168 -1.01699,-0.71933 -0.27285,-0.29766 -0.42168,-0.74415 -0.12402,-0.47128 -0.12402,-1.24023 0,-0.5457 0.0496,-0.89297 0.0496,-0.37207 0.14883,-0.59531 0.0992,-0.22324 0.24804,-0.29766 0.14883,-0.0992 0.34727,-0.0992 0.34726,0 0.96738,0.42168 0.64492,0.42168 1.63711,0.91778 0.99219,0.49609 2.38125,0.94258 1.41387,0.42167 3.24941,0.42167 1.38907,0 2.53008,-0.37207 1.16582,-0.37207 1.98438,-1.04179 0.84336,-0.69453 1.28984,-1.68672 0.44649,-0.99219 0.44649,-2.25723 0,-1.36426 -0.62012,-2.33164 -0.62012,-0.96738 -1.63711,-1.686717 -1.01699,-0.744137 -2.33164,-1.339445 -1.28984,-0.62012 -2.6541,-1.24023 -1.36426,-0.64493 -2.6541,-1.41387 -1.28985,-0.76895 -2.30684,-1.81074 -1.01699,-1.0418 -1.66191,-2.43086 -0.62012,-1.41387 -0.62012,-3.37344 0,-2.00918 0.71933,-3.57188 0.74415,-1.5875 2.03399,-2.6541 1.31465,-1.0666 3.10058,-1.6123 1.81075,-0.57051 3.89434,-0.57051 1.0666,0 2.1332,0.19844 1.09141,0.17363 2.03399,0.49609 0.96738,0.29766 1.71152,0.69453 0.74414,0.37207 0.96738,0.62012 0.24805,0.22324 0.32247,0.37207 0.0744,0.12402 0.12402,0.34727 0.0496,0.19843 0.0744,0.49609 0.0248,0.29766 0.0248,0.76895 0,0.44648 -0.0496,0.79375 -0.0248,0.34726 -0.0992,0.59531 -0.0744,0.22324 -0.22324,0.34726 -0.12403,0.0992 -0.29766,0.0992 -0.27285,0 -0.86816,-0.34726 -0.57051,-0.34727 -1.41387,-0.76895 -0.84336,-0.44648 -2.00918,-0.79375 -1.14102,-0.37207 -2.57969,-0.37207 -1.33945,0 -2.33164,0.37207 -0.99219,0.34727 -1.63711,0.94258 -0.64492,0.59531 -0.96738,1.41387 -0.32246,0.81855 -0.32246,1.73632 0,1.33946 0.62012,2.30684 0.62011,0.96738 1.6371,1.71152 1.0418,0.74414 2.35645,1.36426 1.31465,0.62012 2.67891,1.26504 1.36425,0.62012 2.6789,1.38906 1.31465,0.74414 2.33164,1.78594 1.0418,1.01699 1.66192,2.430852 0.64492,1.38906 0.64492,3.29902 z"
             style="font-style:normal;font-variant:normal;font-weight:normal;font-stretch:normal;font-size:50.79999924px;line-height:9;font-family:Calibri;-inkscape-font-specification:Calibri;letter-spacing:0px;word-spacing:0px;fill:#ffffff;fill-opacity:1;stroke:none;stroke-width:0.26458332"
             id="path14"
             inkscape:connector-curvature="0" />
          <path
             inkscape:connector-curvature="0"
             id="path897"
             d="m 177.6567,80.626542 c -0.42994,0 -0.77721,0.02479 -1.04179,0.07441 -0.26459,0.03307 -0.47956,0.08268 -0.64493,0.148828 -0.16536,0.04961 -0.28112,0.124024 -0.34726,0.223242 -0.0661,0.09922 -0.0992,0.214974 -0.0992,0.347266 v 12.848828 h -14.43374 c 0.8347,0.393771 1.68203,0.7938 2.54661,1.20251 0.9095,0.413414 1.80248,0.876437 2.67891,1.389062 0.5845,0.330854 1.12071,0.710018 1.61695,1.129131 h 7.59127 v 14.237901 c 0,0.13229 0.0331,0.24804 0.0992,0.34726 0.0661,0.0992 0.1819,0.1819 0.34726,0.24805 0.16537,0.0496 0.38034,0.091 0.64493,0.12402 0.26458,0.0496 0.61185,0.0744 1.04179,0.0744 0.39688,0 0.72761,-0.0248 0.99219,-0.0744 0.28112,-0.0331 0.50436,-0.0744 0.66973,-0.12402 0.16536,-0.0661 0.28112,-0.14883 0.34726,-0.24805 0.0661,-0.0992 0.0992,-0.21497 0.0992,-0.34726 V 81.420292 c 0,-0.132292 -0.0331,-0.248047 -0.0992,-0.347266 -0.0661,-0.09922 -0.1819,-0.173633 -0.34726,-0.223242 -0.16537,-0.06615 -0.38861,-0.115755 -0.66973,-0.148828 -0.26458,-0.04961 -0.59531,-0.07441 -0.99219,-0.07441 z"
             style="font-style:normal;font-variant:normal;font-weight:normal;font-stretch:normal;font-size:50.79999924px;line-height:9;font-family:Calibri;-inkscape-font-specification:Calibri;letter-spacing:0px;word-spacing:0px;fill:#ffffff;fill-opacity:1;stroke:none;stroke-width:0.26458332" />
        </g>
      </g>
    </g>
  </g>
</svg>
