<svg height="511pt" viewBox="-82 0 511 511.99838" width="511pt" xmlns="http://www.w3.org/2000/svg"><path d="m179.679688 379.664062c-2.402344-.082031-4.597657-1.40625-6.535157-2.574218l-35.617187-21.710938c-.082032-.039062-.160156-.074218-.234375-.113281l-1.574219-.789063-.484375-1.691406c-1.9375-6.804687-3.777344-13.886718-5.464844-21.050781l-2.273437-9.640625 41.648437 26.800781c2.808594 1.800781 6.289063 4.035157 10.066407 4.035157 3.855468-.023438 7.300781-2.28125 10.066406-4.097657 6.714844-4.378906 12.367187-8.363281 17.828125-12.214843 3.800781-2.679688 8.105469-5.714844 12.824219-8.890626l8.867187-5.960937-2.773437 10.320313c-2.261719 8.417968-4.742188 16.910156-7.367188 25.246093l-.808594 2.554688-2.671875.226562c-9.144531 6.664063-18.894531 12.589844-28.992187 17.617188-1.726563.863281-3.886719 1.941406-6.171875 1.941406-.113281 0-.222657-.003906-.332031-.007813zm0 0" fill="#bfc7d8"/><path d="m174.644531 448.785156c-14.652343-26.652344-26.746093-55.050781-35.941406-84.410156l-3.179687-10.144531 37.457031 22.832031c1.871093 1.136719 4.195312 2.550781 6.679687 2.664062h.320313c2.148437 0 4.171875-.917968 6.226562-1.941406 7.734375-3.847656 15.316407-8.261718 22.539063-13.117187l9.789062-6.582031-3.765625 11.179687c-9.101562 27.015625-20.21875 53.722656-33.042969 79.378906l-3.410156 6.820313zm0 0" fill="#939baa"/><path d="m189.433594 432.800781c25.558594-54.917969 42.898437-113.214843 51.539062-173.269531l.753906-5.25 4.839844 2.167969c22.457032 10.066406 42.574219 15.503906 67.75 21.011719l6.195313 1.355468-3.894531 5.007813c-1.183594 1.519531-2.367188 3.070312-3.523438 4.585937l-.207031.265625c-7.082031 9.300781-14.410157 18.925781-23.503907 25.710938-11.84375 8.820312-24.832031 15.570312-38.613281 20.054687l21.109375 13.429688c.554688.339844 1.007813.648437 1.347656.925781l2.332032 1.859375-1.121094 2.765625c-.277344.683594-.730469 1.453125-1.421875 2.421875-13.292969 18.628906-30.089844 34.757812-46.335937 50.359375-10.296876 9.902344-20.917969 20.117187-30.644532 30.957031zm0 0" fill="#5b8baf"/><path d="m157.761719 433.394531c-8.695313-9.347656-17.894531-18.191406-26.792969-26.742187-16.25-15.613282-33.054688-31.761719-46.332031-50.359375-.695313-.988281-1.136719-1.746094-1.410157-2.410157l-1.109374-2.722656 2.261718-1.871094c.355469-.296874.796875-.601562 1.429688-.992187l21.082031-13.359375c-26.851563-8.785156-51.695313-27.101562-68.160156-50.316406l-3.617188-5.097656 6.144531-1.148438c24.683594-4.609375 48.851563-12.042969 71.84375-22.09375l5.183594-2.265625.40625 5.644531c4.179688 58.105469 19.945313 116.632813 45.597656 169.253906zm0 0" fill="#5b8baf"/><path d="m92.019531 182.792969c-11.636719-19.164063-15.214843-43.351563-9.566406-64.707031 2.742187-10.34375 7.515625-20.28125 12.132813-29.890626 5.019531-10.4375 10.207031-21.230468 12.6875-32.460937l1.933593-8.746094 5.222657 7.277344c2.828124 3.941406 6.242187 7.328125 10.148437 10.066406-1.734375-11.996093 1.324219-24.628906 8.449219-34.675781l4.230468-5.96875 2.742188 6.78125c1.347656 3.335938 3.671875 6.207031 6.550781 8.09375.582031-12.234375 7.234375-24.347656 17.421875-31.628906l3.992188-2.851563 1.992187 4.484375c2.378907 5.355469 7.378907 9.96875 14.078125 12.996094 4.308594 1.953125 8.949219 3.21875 13.4375 4.4375l.109375.03125c3.589844.96875 6.585938 1.796875 9.628907 2.878906 6.503906 2.332032 14.933593 6.832032 18.222656 15.054688.90625 2.269531 2.792968 6.988281 5.539062 6.988281.28125 0 .585938-.039063.914063-.117187 2.546875-.609376 3.210937-3.917969 3.316406-6.585938l1.011719-25.382812 6.890625 11.414062c7.539062 12.492188 12.234375 26.675781 13.578125 41.015625l.351562-.429687 6.46875-9.679688.847656 11.609375c.410157 5.589844 1.914063 11.949219 4.472657 18.898437.742187 2.011719 1.574219 4.179688 2.707031 7.027344 3.980469 10.125 7.734375 19.660156 7.417969 30.058594-.457031 15.902344-10.441407 29.351562-21.167969 41.511719l-6.152344 6.980469-.832031-9.269532c-.183594-2.085937-.394531-4.128906-.640625-6.238281l-.15625-1.40625c-.730469-7.371094-2.230469-14.648437-4.472656-21.726563-4.214844-13.289062-9.773438-24.140624-18.582032-36.277343-17.109374 8.714843-34.402343 13.136719-51.4375 13.140625-13.171874 0-25.761718-2.6875-37.421874-7.988282-2.945313-1.339843-5.605469-2.019531-7.902344-2.019531-6.226563 0-9.753906 4.910157-14.429688 12.394531-6.265625 10.042969-10.832031 21.039063-13.570312 32.679688-2.332032 9.941406-3.257813 20.019531-2.746094 29.949219zm0 0" fill="#644c4c"/><path d="m178.5625 504.332031c-1.164062-10.425781-.566406-21.050781.011719-31.324219l.863281-15.242187.800781-.996094c.082031-.101562.167969-.203125.257813-.296875 13.257812-18.550781 30.019531-34.648437 46.234375-50.21875 16.238281-15.609375 33.035156-31.75 46.34375-50.382812 1.097656-1.53125 2.265625-3.515625 1.59375-5.324219-.472657-1.292969-1.730469-2.085937-2.738281-2.726563l-20.8125-13.183593 7.3125-2.890625c5.644531-2.234375 11.207031-4.890625 16.53125-7.902344l3.234374-1.828125 2.0625 3.089844c.070313.109375.136719.21875.199219.332031 6.8125 9.648438 16.3125 17.496094 25.5 25.089844 12.292969 10.152344 23.863281 19.710937 30.273438 33.570312 6.257812 13.519532 6.316406 29.214844 6.367187 43.0625l.261719 67.441406c.015625 3.914063-.191406 7.949219-2.789063 10.511719-2.539062 2.519531-6.5 2.734375-10.339843 2.734375l-50.445313.019532-.09375-3.90625c-.644531-27.304688.015625-54.898438 1.957032-82.007813-2 26.960937-2.660157 54.492187-2.03125 81.820313l.097656 4.09375-100.25.019531zm0 0" fill="#3a6082"/><path d="m18.148438 507.9375c-4.152344 0-8.808594-.261719-11.4375-3.414062-2.101563-2.519532-2.207032-6.011719-2.128907-9.667969l1.78125-85.585938c.195313-8.988281.398438-18.28125 3.765625-26.835937 5.929688-15.109375 20.367188-24.714844 33.710938-32.121094 3.085937-1.707031 6.050781-3.214844 8.921875-4.671875l.367187-.1875c9.441406-4.777344 18.355469-9.289063 26.015625-18.679687.015625-.027344 2.054688-3.226563 2.054688-3.226563l3.277343 1.777344c4.808594 2.605469 9.769532 4.917969 14.738282 6.875l7.328125 2.882812-20.800781 13.1875c-1.027344.648438-2.285157 1.445313-2.761719 2.730469-.664063 1.800781.507812 3.792969 1.601562 5.320312 13.285157 18.613282 30.09375 34.765626 46.351563 50.382813 16.292968 15.660156 33.078125 31.789063 46.332031 50.359375l2.011719 1.234375-.070313 2.425781-.691406 12.269532c-.539063 9.453124-1.148437 20.164062-.09375 30.5l.449219 4.40625-111.027344.019531.066406-4.066407c.480469-28.289062-1.027344-56.75-4.476562-84.589843 3.394531 27.894531 4.902344 56.398437 4.417968 84.726562l-.070312 3.929688-49.597656.019531zm0 0" fill="#3a6082"/><path d="m181.515625 285.660156c-11.929687 0-23.667969-2.742187-33.9375-7.933594-21.515625-10.875-37.640625-32.710937-42.09375-56.976562-3.007813 2.332031-6.867187 3.628906-10.910156 3.628906-4.355469 0-8.445313-1.472656-11.519531-4.140625-6.160157-5.347656-7.757813-15.046875-3.636719-22.082031 3.054687-5.222656 9.125-8.59375 15.460937-8.59375 1.945313 0 3.820313.320312 5.582032.949219-1.910157-12.984375-1.304688-26.78125 1.785156-39.9375 2.742187-11.664063 7.308594-22.648438 13.5625-32.648438 4.699218-7.519531 8.242187-12.453125 14.445312-12.453125 2.210938 0 4.617188.644532 7.804688 2.09375 11.683594 5.308594 24.289062 8.003906 37.453125 8.003906 15.988281 0 32.265625-3.921874 48.375-11.65625l3.074219-1.476562 1.941406 2.796875c7.585937 10.917969 12.691406 21.226563 16.5625 33.425781 2.230468 7.023438 3.734375 14.296875 4.464844 21.621094.03125.394531.089843.871094.160156 1.464844 1.460937 12.777344 1.046875 16.398437.609375 18.011718l-.242188.886719-.605469.695313c7.605469-5.042969 13.453126-7.410156 18.449219-7.410156 2.519531 0 4.828125.621093 6.859375 1.839843 6.304688 3.78125 7.738282 12.621094 5.898438 19.394531-3.15625 11.605469-14.660156 20.359376-26.761719 20.359376-.441406 0-.878906-.007813-1.316406-.03125.308593 24.054687-13.734375 48.4375-34.972657 60.699218-10.730468 6.195313-23.351562 9.46875-36.492187 9.46875zm0 0" fill="#ffdac4"/><path d="m179.210938 352.867188c-3.480469 0-6.605469-1.820313-10.03125-4.023438l-41.574219-26.746094-.339844-1.640625c-3.847656-18.425781-6.585937-37.246093-8.140625-55.9375l-.960938-11.519531 7.875 8.464844c6.351563 6.824218 13.589844 12.316406 21.515626 16.324218 10.246093 5.175782 21.984374 7.910157 33.945312 7.910157 13.199219 0 25.835938-3.269531 36.539062-9.453125 5.363282-3.097656 10.324219-6.953125 14.746094-11.457032l8.757813-8.933593-1.953125 12.359375c-2.808594 17.773437-6.4375 35.640625-10.789063 53.101562l-.753906 3.03125h-3.125c-6.671875 4.347656-12.285156 8.296875-17.71875 12.121094l-.132813.09375c-5.933593 4.1875-11.375 8-17.820312 12.214844-3.402344 2.222656-6.5 4.0625-9.976562 4.09375h-.0625zm0 0" fill="#ffdac4"/><path d="m346.921875 494.589844-.261719-67.3125v-.128906c-.054687-14.265626-.117187-30.4375-6.742187-44.757813-6.800781-14.703125-19.28125-25.011719-31.351563-34.980469-8.9375-7.382812-18.175781-15.015625-24.730468-24.246094 2.710937-1.742187 5.371093-3.578124 7.972656-5.519531 9.523437-7.09375 17.042968-16.960937 24.320312-26.503906 2.617188-3.433594 5.089844-6.679687 7.640625-9.785156.894531-1.085938 1.15625-2.558594.691407-3.886719-.464844-1.328125-1.585938-2.320312-2.960938-2.613281-25.382812-5.429688-48.523438-10.898438-74.253906-22.554688 5.753906-10.019531 9.1875-21.304687 9.703125-32.839843 12.792969-1.199219 24.644531-10.753907 28.03125-23.226563 2.175781-7.996094.679687-18.902344-7.734375-23.949219-4.589844-2.753906-9.535156-2.890625-14.316406-1.71875 10.894531-12.679687 19.621093-25.824218 20.085937-41.667968.328125-11.230469-3.753906-21.609376-7.703125-31.644532-.898438-2.285156-1.828125-4.652344-2.675781-6.953125-5.421875-14.75-5.757813-25.878906-1.03125-34.03125 1.089843-1.882812.492187-4.292969-1.355469-5.441406-1.84375-1.152344-4.273438-.632813-5.484375 1.179687l-5.605469 8.382813c-3.171875-15.511719-10.050781-30.382813-19.867187-42.71875-1.050781-1.316406-2.804688-1.84375-4.410157-1.320313-1.601562.523438-2.707031 1.988282-2.773437 3.667969l-.964844 24.066407c-.035156.898437-.136719 1.570312-.246093 2.054687-.648438-1.078125-1.34375-2.824219-1.714844-3.746094-3.824219-9.570312-13.308594-14.691406-20.59375-17.300781-3.304688-1.183594-6.679688-2.101562-9.941406-2.988281-4.574219-1.238281-8.886719-2.410157-12.929688-4.238281-7.378906-3.339844-12.257812-8.71875-13.046875-14.390626-.179687-1.292968-.972656-2.421874-2.132813-3.023437-1.160156-.601563-2.539062-.605469-3.703124-.007813-11.332032 5.824219-19.722657 16.613282-22.914063 28.855469-.84375-1.925781-1.253906-4.035156-1.125-6.105469.101563-1.65625-.820313-3.207031-2.324219-3.90625-1.507812-.699218-3.285156-.40625-4.484375.742188-9.496093 9.074219-15.164062 21.84375-15.84375 34.902344-3.328125-3.78125-5.929687-8.203125-7.574219-12.964844-.640624-1.847656-2.515624-2.96875-4.445312-2.664062-1.933594.308593-3.363281 1.957031-3.398438 3.914062-.25 15.035156-6.832031 28.726562-13.796874 43.226562-4.703126 9.785157-9.566407 19.90625-12.398438 30.605469-6.191406 23.394531-2.121094 48.832031 10.835938 69.167969-5.53125 1.414062-10.535157 4.894531-13.457032 9.882812-5.074218 8.671876-3.105468 20.625 4.484375 27.210938 6.039063 5.238281 14.941407 6.476562 22.289063 3.617188 2.242187 8.769531 5.925781 17.148437 10.765625 24.753906-25.191407 11.207031-51.726563 19.207031-78.933594 23.769531-1.332031.222656-2.464844 1.097656-3.015625 2.335937-.550781 1.234376-.441406 2.667969.285156 3.808594 11.199219 17.558594 26.242188 32.269532 43.765625 43.140625-7 8.335938-15.011719 12.410157-24.253906 17.09375-3.019531 1.53125-6.140625 3.113281-9.425781 4.933594-13.96875 7.746094-29.117188 17.867187-35.527344 34.191406-3.640625 9.273438-3.851562 19.417969-4.039062 28.375l-1.78125 85.4375c-.074219 3.375-.179688 8.46875 3.070312 12.363281 4.011719 4.804688 10.726562 4.867188 14.433594 4.867188h.148437l311.558594-.085938c3.460937 0 9.253906 0 13.199219-3.914062 4.023437-3.988281 4-9.882812 3.988281-13.410156zm-37.207031-208.339844c-6.9375 9.101562-14.109375 18.511719-22.722656 24.929688-11.492188 8.5625-24.097657 15.109374-37.460938 19.453124-1.484375.484376-2.558594 1.78125-2.753906 3.332032-.195313 1.550781.523437 3.074218 1.84375 3.910156l21.121094 13.371094c.214843.132812.6875.433594.984374.671875-.109374.273437-.367187.765625-.964843 1.597656-13.054688 18.292969-29.726563 34.3125-45.851563 49.808594-10.398437 9.992187-21.023437 20.207031-30.847656 31.164062 25.738281-55.304687 43.15625-113.847656 51.867188-174.394531 23.871093 10.703125 45.449218 16.226562 68.53125 21.273438-1.265626 1.625-2.515626 3.269531-3.746094 4.882812zm-84.796875 34.097656c-.757813-.003906-1.523438.203125-2.207031.652344-6.761719 4.414062-12.445313 8.417969-17.941407 12.292969-5.441406 3.835937-11.070312 7.800781-17.710937 12.140625-2.96875 1.9375-5.425782 3.417968-7.820313 3.429687-.011719 0-.019531 0-.03125 0-2.402343 0-4.878906-1.46875-7.863281-3.390625l-40.160156-25.832031c-3.824219-18.304687-6.527344-36.835937-8.070313-55.449219 6.527344 7.015625 14.183594 12.894532 22.636719 17.164063 11.023438 5.574219 23.414062 8.34375 35.75 8.34375 13.546875 0 27.027344-3.34375 38.535156-9.988281 5.773438-3.332032 11.003906-7.4375 15.605469-12.121094-2.8125 17.777344-6.390625 35.375-10.722656 52.757812zm-57.9375 31.90625c3.070312 1.972656 7.265625 4.671875 12.230469 4.671875h.070312c4.960938-.023437 9.136719-2.75 12.1875-4.742187 6.761719-4.417969 12.445312-8.425782 17.945312-12.300782 4.03125-2.839843 8.167969-5.753906 12.742188-8.835937-2.257812 8.414063-4.699219 16.773437-7.3125 25.082031-.714844.058594-1.421875.292969-2.042969.75-8.9375 6.53125-18.492187 12.339844-28.402343 17.269532-1.660157.828124-3.21875 1.582031-4.539063 1.519531-1.441406-.050781-3.203125-1.125-4.757813-2.070313l-35.660156-21.734375c-.117187-.074219-.238281-.117187-.359375-.175781-1.96875-6.910156-3.777343-13.867188-5.421875-20.863281zm3.921875 28.226563c2.164062 1.316406 5.125 3.121093 8.679687 3.246093.132813.003907.265625.007813.398438.007813 2.996093 0 5.597656-1.164063 8.007812-2.363281 7.925781-3.941406 15.628907-8.429688 22.992188-13.378906-9.082031 26.945312-20.039063 53.28125-32.835938 78.867187-14.617187-26.589844-26.546875-54.6875-35.625-83.679687zm-84.578125-261.371094c2.632812-9.957031 7.328125-19.726563 11.871093-29.175781 5.140626-10.695313 10.40625-21.65625 12.980469-33.335938 3.058594 4.253906 6.816407 8.003906 11.105469 11.015625 1.320312.925781 3.0625.976563 4.433594.128907 1.371094-.847657 2.105468-2.429688 1.871094-4.023438-1.652344-11.078125 1.253906-22.644531 7.699218-31.75 1.621094 4.011719 4.425782 7.546875 8.074219 9.945312 1.214844.796876 2.761719.878907 4.050781.21875 1.289063-.664062 2.128906-1.964843 2.191406-3.414062.480469-11.121094 6.617188-22.039062 15.699219-28.527344 2.734375 6.160156 8.429688 11.554688 16.09375 15.019532 4.628907 2.09375 9.460938 3.40625 14.136719 4.675781 3.257812.882812 6.332031 1.714843 9.335938 2.792969 5.726562 2.050781 13.117187 5.921874 15.851562 12.765624 1.414062 3.535157 4.351562 10.882813 11.089844 9.28125 2.253906-.539062 6.082031-2.589843 6.390625-10.316406l.484375-12.066406c7.183594 11.917969 11.726562 25.535156 13.015625 39.328125.15625 1.699219 1.367187 3.113281 3.023437 3.53125 1.652344.417969 3.394532-.25 4.339844-1.667969l.300781-.445312c.441407 6.011718 2.011719 12.65625 4.707031 19.992187.875 2.386719 1.824219 4.792969 2.738282 7.121094 3.820312 9.707031 7.429687 18.878906 7.148437 28.457031-.421875 14.285156-9.351562 26.71875-20.175781 38.988282-.167969-1.902344-.378906-4.003907-.648438-6.335938-.070312-.613281-.125-1.101562-.15625-1.429688-.753906-7.574218-2.3125-15.128906-4.636718-22.453124-4.347656-13.71875-10.078125-24.910157-19.15625-37.417969-1.164063-1.609375-3.328125-2.125-5.097656-1.222657-29.296876 14.972657-59.605469 16.773438-85.34375 5.074219-15.53125-7.054687-21.828126 3.019531-27.382813 11.90625-6.492187 10.394531-11.222656 21.792969-14.0625 33.875-2.4375 10.355469-3.382813 20.765625-2.851563 31.074219-11.019531-18.125-14.535156-41.152344-9.121093-61.609375zm20.546875 97.871094c-.460938-.171875-.941406-.257813-1.417969-.257813-.894531 0-1.78125.300782-2.507813.875-4.84375 3.847656-12.59375 3.679688-17.269531-.378906-4.675781-4.054688-5.933593-11.703125-2.808593-17.042969 3.128906-5.34375 10.414062-7.988281 16.238281-5.902343 1.332031.480468 2.824219.222656 3.917969-.679688 1.097656-.898438 1.640624-2.308594 1.429687-3.710938-1.871094-12.464843-1.285156-25.742187 1.6875-38.390624 2.636719-11.222657 7.03125-21.804688 13.054687-31.449219 6.570313-10.515625 8.949219-12.589844 17.207032-8.835938 27.097656 12.316407 58.660156 10.984375 89.222656-3.6875 7.414062 10.675781 12.273438 20.519531 16.027344 32.347657 2.152344 6.792968 3.597656 13.796874 4.296875 20.8125.035156.355468.09375.882812.167969 1.546874 1.3125 11.453126 1.058593 15.234376.722656 16.480469-1.183594 1.351563-1.347656 3.382813-.285156 4.929688 1.25 1.824219 3.734374 2.296875 5.574218 1.066406 9.699219-6.523437 16.363282-8.273437 20.964844-5.507813 4.558594 2.734376 5.515625 9.726563 4.105469 14.921876-2.800781 10.300781-13.328125 17.9375-24.011719 17.378906-1.132812-.054688-2.203125.347656-3.007812 1.121094-.800782.773437-1.25 1.84375-1.234376 2.960937.320313 22.625-12.917968 45.589844-32.941406 57.148437-19.695312 11.371094-45.847656 11.933594-66.621094 1.433594-20.417968-10.316406-35.730468-31.0625-39.964843-54.132812-.253907-1.394532-1.222657-2.550782-2.546875-3.046875zm-64.886719 65.332031c25-4.671875 49.40625-12.179688 72.710937-22.363281 4.257813 59.078125 20.027344 117.441406 45.996094 170.714843-8.707031-9.359374-17.910156-18.207031-26.949218-26.894531-16.125-15.492187-32.792969-31.511719-45.851563-49.804687-.59375-.832032-.851563-1.324219-.960937-1.597656.292968-.234376.769531-.535157.980468-.671876l21.125-13.371093c1.320313-.835938 2.035156-2.359375 1.84375-3.910157-.195312-1.550781-1.269531-2.847656-2.753906-3.332031-26.300781-8.550781-50.097656-26.164062-66.140625-48.769531zm-23.808594 221.621094c-.007812 0-.015625 0-.023437 0-3.257813 0-6.851563-.152344-8.371094-1.972656-1.214844-1.457032-1.261719-4.152344-1.199219-7.027344l1.78125-85.4375c.183594-8.683594.367188-17.664063 3.484375-25.59375 5.476563-13.949219 19.214844-23.035156 31.929688-30.089844 3.15625-1.75 6.207031-3.296875 9.160156-4.792969 9.878906-5.003906 19.214844-9.734375 27.421875-19.859375.085937-.101562.144531-.214844.214844-.324218 4.902343 2.660156 9.96875 5.03125 15.179687 7.085937l-14.15625 8.960937c-1.28125.8125-3.421875 2.167969-4.367187 4.726563-1.484375 4.019531 1.117187 7.667969 2.097656 9.039063 13.492187 18.902343 30.4375 35.1875 46.828125 50.9375 16.136719 15.503906 32.820312 31.535156 45.878906 49.847656.324219.453125.734375.792968 1.179688 1.066406l-.695313 12.265625c-.574219 10.160156-1.152343 20.652344-.078125 31.128906l-102.53125.027344c.480469-28.378906-1.019531-57.007813-4.511718-85.15625-.273438-2.210937-2.28125-3.773437-4.496094-3.507813-2.210938.277344-3.777344 2.289063-3.503906 4.5 3.449218 27.820313 4.929687 56.117188 4.445312 84.164063zm319.082031-1.660156c-1.46875 1.457031-4.523437 1.578124-7.527343 1.578124l-46.546875.011719c-.632813-27.132812.011718-54.578125 1.949218-81.628906.160157-2.222656-1.511718-4.148437-3.730468-4.308594-2.234375-.15625-4.152344 1.511719-4.3125 3.734375-1.949219 27.238282-2.601563 54.882813-1.96875 82.207032l-92.582032.023437c-1.128906-10.097656-.542968-20.554687.03125-30.671875l.789063-13.953125c.082031-.097656.183594-.175781.257813-.285156 13.058593-18.308594 29.746093-34.34375 45.882812-49.847657 16.386719-15.746093 33.335938-32.03125 46.824219-50.933593.980469-1.371094 3.585937-5.019531 2.097656-9.039063-.945313-2.558594-3.085937-3.914062-4.363281-4.726562l-14.160156-8.964844c5.84375-2.308594 11.527343-5.03125 17.03125-8.140625.035156.0625.0625.128906.101562.1875 7.191406 10.246094 16.957031 18.3125 26.398438 26.109375 11.898437 9.828125 23.136718 19.109375 29.167968 32.148438 5.886719 12.726562 5.949219 27.964843 6 41.40625l.261719 67.441406c.011719 3.058594-.101563 6.167968-1.601563 7.652344zm0 0"/></svg>