<svg height="496pt" viewBox="-72 0 496 496" width="496pt" xmlns="http://www.w3.org/2000/svg"><path d="m256 440 15.679688-86.398438 33.761718 6.71875c22.398438 4.480469 38.558594 24.160157 38.558594 47.039063v80.640625h-64v-24zm0 0" fill="#f0d0b4"/><path d="m160 392c0 8.800781 7.199219 16 16 16s16-7.199219 16-16-7.199219-16-16-16c40 0 48-32 48-32l47.679688 9.601562-15.679688 86.398438h-160l-15.679688-86.398438 47.679688-9.601562s8 32 48 32c-8.800781 0-16 7.199219-16 16zm0 0" fill="#f0d0b4"/><path d="m80.320312 353.601562 15.679688 86.398438-24 24v24h-64v-80.640625c0-22.878906 16.160156-42.558594 38.558594-47.039063zm0 0" fill="#f0d0b4"/><path d="m280 464v24h-208v-24l24-24h160zm0 0" fill="#ff826e"/><path d="m240 72c0 3.921875-.398438 7.601562-1.039062 11.359375-18-12.160156-39.679688-19.359375-62.960938-19.359375s-44.960938 7.199219-62.960938 19.359375c-.71875-3.679687-1.039062-7.4375-1.039062-11.359375 0-35.359375 28.640625-64 64-64s64 28.640625 64 64zm0 0" fill="#b27946"/><path d="m288 176v48c0-17.679688-14.320312-32-32-32v-32l-3.679688-1.519531c-24-9.519531-49.601562-14.480469-75.359374-14.480469-21.839844 0-43.519532 3.519531-64.160157 10.398438l-16.800781 5.601562v32c-17.679688 0-32 14.320312-32 32v-48c0-38.480469 19.441406-72.480469 49.039062-92.640625 18-12.160156 39.679688-19.359375 62.960938-19.359375s44.960938 7.199219 62.960938 19.359375c5.839843 4 11.277343 8.480469 16.238281 13.441406 20.242187 20.320313 32.800781 48.320313 32.800781 79.199219zm0 0" fill="#b27946"/><path d="m192 392c0 8.835938-7.164062 16-16 16s-16-7.164062-16-16 7.164062-16 16-16 16 7.164062 16 16zm0 0" fill="#ffc729"/><g fill="#f0d0b4"><path d="m224 304v40s-8 32-48 32-48-32-48-32v-40c13.359375 10 30 16 48 16s34.640625-6 48-16zm0 0"/><path d="m256 192c17.679688 0 32 14.320312 32 32 0 11.839844-6.398438 22.160156-16 27.679688-4.71875 2.71875-10.160156 4.320312-16 4.320312l-1.519531-.238281c.960937-5.042969 1.519531-10.320313 1.519531-15.761719zm0 0"/><path d="m96 240c0 5.441406.558594 10.71875 1.519531 15.761719l-1.519531.238281c-5.839844 0-11.28125-1.601562-16-4.320312-9.601562-5.519532-16-15.839844-16-27.679688 0-17.679688 14.320312-32 32-32zm0 0"/><path d="m96 160 16.800781-5.601562c20.640625-6.878907 42.320313-10.398438 64.160157-10.398438 25.757812 0 51.359374 4.960938 75.359374 14.480469l3.679688 1.519531v80c0 5.441406-.558594 10.71875-1.519531 15.761719-4 19.597656-15.039063 36.636719-30.480469 48.238281-13.359375 10-30 16-48 16s-34.640625-6-48-16c-3.039062-2.320312-5.921875-4.800781-8.558594-7.441406-10.960937-10.957032-18.722656-25.039063-21.921875-40.796875-.960937-5.042969-1.519531-10.320313-1.519531-15.761719zm0 0"/></g><path d="m256 200c0 17.671875-14.328125 32-32 32s-32-14.328125-32-32 14.328125-32 32-32 32 14.328125 32 32zm0 0" fill="#fcd770"/><path d="m160 200c0 17.671875-14.328125 32-32 32s-32-14.328125-32-32 14.328125-32 32-32 32 14.328125 32 32zm0 0" fill="#fcd770"/><path d="m306.984375 352.441406-74.984375-15v-29.617187c13.6875-11.320313 23.824219-26.726563 28.710938-44.304688 1.089843-.128906 2.226562-.113281 3.289062-.335937v32.816406h16v-40.207031c9.65625-7.3125 16-18.785157 16-31.792969v-48c0-39.351562-19.121094-74.230469-48.472656-96.128906.289062-2.613282.472656-5.238282.472656-7.871094 0-39.695312-32.304688-72-72-72s-72 32.304688-72 72c0 2.632812.191406 5.265625.480469 7.871094-29.351563 21.898437-48.480469 56.777344-48.480469 96.128906v48c0 13.015625 6.34375 24.488281 16 31.792969v40.207031h16v-32.808594c1.0625.214844 2.199219.199219 3.289062.335938 4.886719 17.578125 15.023438 32.984375 28.710938 44.304687v29.617188l-74.984375 15c-26.078125 5.207031-45.015625 28.304687-45.015625 54.902343v88.648438h352v-88.648438c0-26.597656-18.9375-49.695312-45.015625-54.910156zm-122.175781-160.441406h-17.617188c-3.71875-18.230469-19.871094-32-39.191406-32-9.039062 0-17.296875 3.128906-24 8.207031v-2.4375l11.296875-3.769531c43.085937-14.359375 90.445313-13.128906 132.703125 3.425781v2.78125c-6.703125-5.078125-14.960938-8.207031-24-8.207031-19.3125 0-35.472656 13.769531-39.191406 32zm-32.808594 8c0 13.230469-10.769531 24-24 24s-24-10.769531-24-24 10.769531-24 24-24 24 10.769531 24 24zm72-24c13.230469 0 24 10.769531 24 24s-10.769531 24-24 24-24-10.769531-24-24 10.769531-24 24-24zm39.664062 70.632812c.167969-2.199218.335938-4.394531.335938-6.632812v-38.527344c9.289062 3.3125 16 12.113282 16 22.527344 0 10.535156-6.871094 19.414062-16.335938 22.632812zm-87.664062-230.632812c30.167969 0 54.777344 24 55.894531 53.894531-16.710937-8.839843-35.710937-13.894531-55.894531-13.894531s-39.183594 5.054688-55.894531 13.894531c1.117187-29.894531 25.726562-53.894531 55.894531-53.894531zm0 56c57.34375 0 104 46.65625 104 104v16.207031c-4.671875-3.535156-10.054688-6.183593-16-7.390625v-30.222656l-8.753906-3.503906c-46.109375-18.433594-97.894532-19.960938-145.015625-4.265625l-22.230469 7.40625v30.578125c-5.945312 1.214844-11.328125 3.855468-16 7.390625v-16.199219c0-57.34375 46.65625-104 104-104zm-104 152c0-10.414062 6.710938-19.214844 16-22.527344v38.527344c0 2.238281.167969 4.433594.335938 6.632812-9.464844-3.21875-16.335938-12.097656-16.335938-22.632812zm32 16v-8.207031c6.703125 5.078125 14.960938 8.207031 24 8.207031 19.3125 0 35.472656-13.769531 39.191406-32h17.617188c3.71875 18.230469 19.871094 32 39.191406 32 9.039062 0 17.296875-3.128906 24-8.207031v8.207031c0 39.695312-32.304688 72-72 72s-72-32.304688-72-72zm72 88c14.40625 0 27.984375-3.550781 40-9.710938v24.535157c-1.367188 4.160156-9.769531 25.175781-40 25.175781-30.144531 0-38.558594-20.816406-40-25.183594v-24.535156c12.015625 6.167969 25.59375 9.71875 40 9.71875zm8 64c0 4.40625-3.59375 8-8 8s-8-3.59375-8-8 3.59375-8 8-8 8 3.59375 8 8zm-61.070312-38.824219c4.703124 9.894531 14.742187 21.9375 32 27.585938-1.808594 3.367187-2.929688 7.160156-2.929688 11.238281 0 13.230469 10.769531 24 24 24s24-10.769531 24-24c0-4.078125-1.121094-7.871094-2.929688-11.238281 17.257813-5.648438 27.296876-17.691407 32-27.585938l33.371094 6.671875-13.121094 72.152344h-146.640624l-13.121094-72.152344zm149.070312 126.824219h-192v-12.6875l19.3125-19.3125h153.375l19.3125 19.3125zm-256-72.648438c0-19 13.519531-35.496093 32.160156-39.222656l25.710938-5.144531 13.511718 74.328125-7.382812 7.375v-12.6875h-16v48h-48zm320 72.648438h-48v-48h-16v12.6875l-7.375-7.375 13.511719-74.328125 25.710937 5.144531c18.632813 3.726563 32.152344 20.222656 32.152344 39.222656zm0 0"/><path d="m176 288c17.648438 0 32-14.351562 32-32h-16c0 8.824219-7.175781 16-16 16s-16-7.175781-16-16h-16c0 17.648438 14.351562 32 32 32zm0 0"/><path d="m72 312h16v16h-16zm0 0"/><path d="m264 312h16v16h-16zm0 0"/></svg>