<?xml version="1.0" encoding="iso-8859-1"?>
<!-- Generator: Adobe Illustrator 18.1.1, SVG Export Plug-In . SVG Version: 6.00 Build 0)  -->
<svg version="1.1" id="Capa_1" xmlns="http://www.w3.org/2000/svg" xmlns:xlink="http://www.w3.org/1999/xlink" x="0px" y="0px"
	 viewBox="0 0 491.798 491.798" style="enable-background:new 0 0 491.798 491.798;" xml:space="preserve">
<g>
	<g>
		<g>
			<path style="fill:#EEEEEE;" d="M255.899,81.18c12,1,22.333-2.167,31-9.5c8.667-7.335,13.5-16.668,14.5-28
				c1-11.335-2.333-21.168-10-29.5c-7.668-8.333-17.334-13-29-14c-11.667-1-22,2.167-31,9.5s-14,16.667-15,28s2.333,21.167,10,29.5
				S243.899,80.18,255.899,81.18z"/>
			<path style="fill:#EEEEEE;" d="M431.899,409.68l-14-123h-23c0-7.332-0.333-13.332-1-18c-0.667-6.666-2.667-10.666-6-12
				c3.333-3.332,5-7,5-11c0.667-6.667-1.667-12-7-16l-59-38l-43-82c-8.667-12-20-18.667-34-20c-10.667-0.667-20.667,2-30,8l-86,67
				c-2.667,2-4.667,4.667-6,8l-20,81l-0.5,1l-0.5,1h-1c-3.333,0-5.667,2.668-7,8c-2,6-3,10.668-3,14v9h-22l-14,123h57l-25,40
				c-2,4.667-3.333,8.667-4,12c-0.667,7.333,1.667,14,7,20s12,9.333,20,10c11.333,0.667,20.333-4,27-14l42-68h6l-1-8l12-19l6-11
				l14-63l62,64l19,97c3.333,13.333,12,20.667,26,22c8,0.667,15-1.5,21-6.5s9.333-11.5,10-19.5v-2.5v-2.5l-10-51h18H431.899z
				 M145.899,286.68h-21h-19v-1.5v-4.5v-4c0.667-5.332,2.667-8,6-8h1c3.333,4,8,6.334,14,7c6,0.668,11-1.332,15-6
				c1.333,0.668,2,1.668,2,3c1.333,3.334,2,6.334,2,9V286.68z M164.899,286.68h-12c0-7.332-0.333-13.332-1-18c-0.667-5.332-2-9-4-11
				l15-66l30-23L164.899,286.68z M342.899,263.68c-0.667,1.334-1,6-1,14v9h-26l-4,36l-53-59l19-82l17,31c1.338,2,2.671,3.667,4,5
				l58,38h-8C346.232,255.68,344.232,258.348,342.899,263.68z M347.899,286.68v-2v-4.5v-3.5c0.667-5.332,2.667-8,6-8h12
				c6-0.666,11-1,15-1c2.667,0,4.5,1.5,5.5,4.5s1.5,6.168,1.5,9.5v5h-21H347.899z"/>
		</g>
	</g>
</g>
<g>
</g>
<g>
</g>
<g>
</g>
<g>
</g>
<g>
</g>
<g>
</g>
<g>
</g>
<g>
</g>
<g>
</g>
<g>
</g>
<g>
</g>
<g>
</g>
<g>
</g>
<g>
</g>
<g>
</g>
</svg>
