<?xml version="1.0" encoding="iso-8859-1"?>
<!-- Generator: Adobe Illustrator 19.0.0, SVG Export Plug-In . SVG Version: 6.00 Build 0)  -->
<svg version="1.1" id="Layer_1" xmlns="http://www.w3.org/2000/svg" xmlns:xlink="http://www.w3.org/1999/xlink" x="0px" y="0px"
	 viewBox="0 0 368.34 368.34" style="enable-background:new 0 0 368.34 368.34;" xml:space="preserve">
<g>
	<g>
		<path style="fill:#333E48;" d="M82.842,277.647c-2.449,0-4.915-0.814-6.959-2.486c-11.584-9.479-30.349-28.949-46.159-51.085
			C10,196.464,0,172.528,0,152.934c0-34.32,27.922-62.242,62.242-62.242c16.595,0,32.204,6.454,43.954,18.173
			c0.043,0.042,0.085,0.085,0.127,0.128c14.746,14.823,14.982,30.021,15.19,43.434c0.207,13.342,0.386,24.864,14.916,38.544
			c4.424,4.164,4.634,11.126,0.469,15.549c-4.163,4.424-11.125,4.635-15.549,0.47c-21.304-20.056-21.597-39-21.833-54.222
			c-0.178-11.48-0.307-19.775-8.863-28.332c-0.028-0.028-0.056-0.057-0.084-0.085c-7.586-7.52-17.641-11.658-28.326-11.658
			C40.053,112.692,22,130.745,22,152.934c0,32.641,44.147,85.836,67.814,105.199c4.702,3.847,5.395,10.777,1.548,15.48
			C89.188,276.271,86.027,277.647,82.842,277.647z"/>
		<path style="fill:#7D868C;" d="M66.534,234.997c8.281,9.374,16.767,17.807,23.28,23.137c4.702,3.847,5.395,10.777,1.548,15.48
			c-2.175,2.657-5.335,4.034-8.521,4.034c-2.449,0-4.915-0.814-6.959-2.487c-7.39-6.046-16.807-15.376-25.837-25.598L66.534,234.997
			z"/>
	</g>
	<g>
		<path style="fill:#7D868C;" d="M252.849,242.277c-16.795,0-30.458-13.664-30.458-30.458c0-16.795,13.663-30.458,30.458-30.458
			h85.033c16.795,0,30.458,13.663,30.458,30.458c0,16.794-13.663,30.458-30.458,30.458L252.849,242.277L252.849,242.277z"/>
		<path style="opacity:0.1;fill:#FFFFFF;enable-background:new    ;" d="M356.597,187.814l-54.463,54.463h35.748
			c16.795,0,30.458-13.664,30.458-30.458C368.34,202.076,363.736,193.395,356.597,187.814z"/>
	</g>
	<path style="fill:#1E252B;" d="M275.882,161.361c27.867,0,50.458,22.591,50.458,50.458s-22.591,50.458-50.458,50.458H128.889
		c-27.867,0-50.458-22.591-50.458-50.458s22.591-50.458,50.458-50.458H275.882z"/>
	<path style="opacity:0.05;fill:#A4A9AD;enable-background:new    ;" d="M275.882,161.361H223.69L123.112,261.939
		c1.896,0.216,3.822,0.339,5.776,0.339h86.028l91.001-91.001C297.525,165.048,287.136,161.361,275.882,161.361z"/>
	<path style="fill:#333E48;" d="M128.889,242.277c-16.795,0-30.458-13.664-30.458-30.458c0-16.795,13.663-30.458,30.458-30.458
		h146.993c16.795,0,30.458,13.663,30.458,30.458c0,16.794-13.663,30.458-30.458,30.458L128.889,242.277L128.889,242.277z"/>
	<circle style="fill:#7D868C;" cx="128.889" cy="211.819" r="19.958"/>
</g>
<g>
</g>
<g>
</g>
<g>
</g>
<g>
</g>
<g>
</g>
<g>
</g>
<g>
</g>
<g>
</g>
<g>
</g>
<g>
</g>
<g>
</g>
<g>
</g>
<g>
</g>
<g>
</g>
<g>
</g>
</svg>
